<svg xmlns="http://www.w3.org/2000/svg" width="128" height="128" viewBox="0 0 128 128">
  <title>PORTFOLIO</title>
  <g>
    <polygon points="82.517 30.99 82.517 13.752 45.483 13.752 45.483 30.99 52.278 30.99 52.278 20.548 75.722 20.548 75.722 30.99 82.517 30.99" fill="#7fb3fa"/>
    <rect x="6.307" y="30.99" width="115.386" height="83.258" rx="4.5" fill="#7fb3fa"/>
    <path d="M121.693,56.774,101.4,72.619H26.6L6.307,56.774V35.49a4.5,4.5,0,0,1,4.5-4.5H117.193a4.5,4.5,0,0,1,4.5,4.5Z" fill="#f87c68"/>
    <circle cx="64" cy="72.619" r="27.346" fill="#dbedff"/>
    <path d="M80.889,85.26v8.86a27.348,27.348,0,0,1-33.77.01V85.26a6.711,6.711,0,0,1,4.29-6.27l8.48-3.3h8.23l8.48,3.3A6.726,6.726,0,0,1,80.889,85.26Z" fill="#64d465"/>
    <path d="M73.231,67.429A9.232,9.232,0,1,1,64,58.2,9.231,9.231,0,0,1,73.231,67.429Z" fill="#fcd0a3"/>
  </g>
</svg>
